<mxfile host="app.diagrams.net" modified="2020-09-07T14:22:15.638Z" agent="5.0 (Windows NT 10.0; Win64; x64) AppleWebKit/537.36 (KHTML, like Gecko) Chrome/85.0.4183.83 Safari/537.36" etag="C8njVnGN6GVkpwdMBjSq" version="13.6.6" type="github" pages="5">
  <diagram id="jh-lfZ945CkvPLCZ4bBG" name="Page-1">
    <mxGraphModel dx="868" dy="450" grid="1" gridSize="10" guides="1" tooltips="1" connect="1" arrows="1" fold="1" page="1" pageScale="1" pageWidth="850" pageHeight="1100" math="0" shadow="0">
      <root>
        <mxCell id="0" />
        <mxCell id="1" parent="0" />
        <mxCell id="r4ZFmtUiPwfncVj38mZl-5" value="&lt;h3&gt;Home page&lt;/h3&gt;" style="text;html=1;strokeColor=none;fillColor=none;align=center;verticalAlign=middle;whiteSpace=wrap;rounded=0;fontFamily=Tahoma;" parent="1" vertex="1">
          <mxGeometry x="40" y="41" width="760" height="30" as="geometry" />
        </mxCell>
        <mxCell id="r4ZFmtUiPwfncVj38mZl-22" value="" style="strokeWidth=1;shadow=0;dashed=0;align=center;html=1;shape=mxgraph.mockup.containers.browserWindow;rSize=0;strokeColor=#666666;strokeColor2=#008cff;strokeColor3=#c4c4c4;mainText=,;recursiveResize=0;fontFamily=Lucida Console;" parent="1" vertex="1">
          <mxGeometry x="40" y="80" width="780" height="980" as="geometry" />
        </mxCell>
        <mxCell id="r4ZFmtUiPwfncVj38mZl-23" value="Zaio motors" style="strokeWidth=1;shadow=0;dashed=0;align=center;html=1;shape=mxgraph.mockup.containers.anchor;fontSize=17;fontColor=#666666;align=left;" parent="r4ZFmtUiPwfncVj38mZl-22" vertex="1">
          <mxGeometry x="60" y="12" width="110" height="26" as="geometry" />
        </mxCell>
        <mxCell id="r4ZFmtUiPwfncVj38mZl-24" value="https://www.zaiomotors/landingpage" style="strokeWidth=1;shadow=0;dashed=0;align=center;html=1;shape=mxgraph.mockup.containers.anchor;rSize=0;fontSize=17;fontColor=#666666;align=left;" parent="r4ZFmtUiPwfncVj38mZl-22" vertex="1">
          <mxGeometry x="130" y="60" width="250" height="26" as="geometry" />
        </mxCell>
        <mxCell id="r4ZFmtUiPwfncVj38mZl-25" value="" style="verticalLabelPosition=bottom;shadow=0;dashed=0;align=center;html=1;verticalAlign=top;strokeWidth=1;shape=mxgraph.mockup.graphics.simpleIcon;strokeColor=#999999;fontFamily=Lucida Console;" parent="r4ZFmtUiPwfncVj38mZl-22" vertex="1">
          <mxGeometry y="110" width="780" height="870" as="geometry" />
        </mxCell>
        <mxCell id="r4ZFmtUiPwfncVj38mZl-26" value="" style="verticalLabelPosition=bottom;shadow=0;dashed=0;align=center;html=1;verticalAlign=top;strokeWidth=1;shape=mxgraph.mockup.graphics.simpleIcon;strokeColor=#999999;fontFamily=Lucida Console;" parent="r4ZFmtUiPwfncVj38mZl-22" vertex="1">
          <mxGeometry x="30" y="140" width="160" height="50" as="geometry" />
        </mxCell>
        <mxCell id="r4ZFmtUiPwfncVj38mZl-27" value="" style="strokeWidth=1;shadow=0;dashed=0;align=center;html=1;shape=mxgraph.mockup.forms.rrect;rSize=0;strokeColor=#999999;fillColor=#ffffff;fontFamily=Lucida Console;" parent="r4ZFmtUiPwfncVj38mZl-22" vertex="1">
          <mxGeometry x="240" y="360" width="300" height="390" as="geometry" />
        </mxCell>
        <mxCell id="r4ZFmtUiPwfncVj38mZl-28" value="Sign In" style="strokeWidth=1;shadow=0;dashed=0;align=center;html=1;shape=mxgraph.mockup.forms.anchor;fontSize=12;fontColor=#666666;align=left;resizeWidth=1;spacingLeft=0;" parent="r4ZFmtUiPwfncVj38mZl-27" vertex="1">
          <mxGeometry width="150" height="20" relative="1" as="geometry">
            <mxPoint x="10" y="10" as="offset" />
          </mxGeometry>
        </mxCell>
        <mxCell id="r4ZFmtUiPwfncVj38mZl-29" value="" style="shape=line;strokeColor=#ddeeff;strokeWidth=2;html=1;resizeWidth=1;" parent="r4ZFmtUiPwfncVj38mZl-27" vertex="1">
          <mxGeometry width="270" height="10" relative="1" as="geometry">
            <mxPoint x="10" y="30" as="offset" />
          </mxGeometry>
        </mxCell>
        <mxCell id="r4ZFmtUiPwfncVj38mZl-30" value="User Name:" style="strokeWidth=1;shadow=0;dashed=0;align=center;html=1;shape=mxgraph.mockup.forms.anchor;fontSize=12;fontColor=#666666;align=left;resizeWidth=1;spacingLeft=0;" parent="r4ZFmtUiPwfncVj38mZl-27" vertex="1">
          <mxGeometry width="150" height="20" relative="1" as="geometry">
            <mxPoint x="10" y="40" as="offset" />
          </mxGeometry>
        </mxCell>
        <mxCell id="r4ZFmtUiPwfncVj38mZl-31" value="johndoe" style="strokeWidth=1;shadow=0;dashed=0;align=center;html=1;shape=mxgraph.mockup.forms.rrect;rSize=0;strokeColor=#999999;fontColor=#666666;align=left;spacingLeft=5;resizeWidth=1;" parent="r4ZFmtUiPwfncVj38mZl-27" vertex="1">
          <mxGeometry width="225" height="25" relative="1" as="geometry">
            <mxPoint x="10" y="60" as="offset" />
          </mxGeometry>
        </mxCell>
        <mxCell id="r4ZFmtUiPwfncVj38mZl-32" value="Password:" style="strokeWidth=1;shadow=0;dashed=0;align=center;html=1;shape=mxgraph.mockup.forms.anchor;fontSize=12;fontColor=#666666;align=left;resizeWidth=1;spacingLeft=0;" parent="r4ZFmtUiPwfncVj38mZl-27" vertex="1">
          <mxGeometry width="150" height="20" relative="1" as="geometry">
            <mxPoint x="10" y="95" as="offset" />
          </mxGeometry>
        </mxCell>
        <mxCell id="r4ZFmtUiPwfncVj38mZl-33" value="********" style="strokeWidth=1;shadow=0;dashed=0;align=center;html=1;shape=mxgraph.mockup.forms.rrect;rSize=0;strokeColor=#999999;fontColor=#666666;align=left;spacingLeft=5;resizeWidth=1;" parent="r4ZFmtUiPwfncVj38mZl-27" vertex="1">
          <mxGeometry width="225" height="25" relative="1" as="geometry">
            <mxPoint x="10" y="115" as="offset" />
          </mxGeometry>
        </mxCell>
        <mxCell id="r4ZFmtUiPwfncVj38mZl-34" value="SIGN IN" style="strokeWidth=1;shadow=0;dashed=0;align=center;html=1;shape=mxgraph.mockup.forms.rrect;rSize=5;strokeColor=none;fontColor=#ffffff;fillColor=#66bbff;fontSize=16;fontStyle=1;" parent="r4ZFmtUiPwfncVj38mZl-27" vertex="1">
          <mxGeometry y="1" width="80" height="30" relative="1" as="geometry">
            <mxPoint x="20" y="-150" as="offset" />
          </mxGeometry>
        </mxCell>
        <mxCell id="r4ZFmtUiPwfncVj38mZl-35" value="Forgot Password?" style="strokeWidth=1;shadow=0;dashed=0;align=center;html=1;shape=mxgraph.mockup.forms.anchor;fontSize=12;fontColor=#9999ff;align=left;spacingLeft=0;fontStyle=4;resizeWidth=1;" parent="r4ZFmtUiPwfncVj38mZl-27" vertex="1">
          <mxGeometry y="1" width="225" height="20" relative="1" as="geometry">
            <mxPoint x="10" y="-110" as="offset" />
          </mxGeometry>
        </mxCell>
        <mxCell id="r4ZFmtUiPwfncVj38mZl-36" value="" style="shape=line;strokeColor=#ddeeff;strokeWidth=2;html=1;resizeWidth=1;" parent="r4ZFmtUiPwfncVj38mZl-27" vertex="1">
          <mxGeometry y="1" width="270" height="10" relative="1" as="geometry">
            <mxPoint x="10" y="-90" as="offset" />
          </mxGeometry>
        </mxCell>
        <mxCell id="r4ZFmtUiPwfncVj38mZl-37" value="New User" style="strokeWidth=1;shadow=0;dashed=0;align=center;html=1;shape=mxgraph.mockup.forms.anchor;fontSize=12;fontColor=#666666;align=left;spacingLeft=0;resizeWidth=1;" parent="r4ZFmtUiPwfncVj38mZl-27" vertex="1">
          <mxGeometry y="1" width="225" height="20" relative="1" as="geometry">
            <mxPoint x="10" y="-70" as="offset" />
          </mxGeometry>
        </mxCell>
        <mxCell id="r4ZFmtUiPwfncVj38mZl-38" value="SIGN UP" style="strokeWidth=1;shadow=0;dashed=0;align=center;html=1;shape=mxgraph.mockup.forms.rrect;rSize=5;strokeColor=none;fontColor=#ffffff;fillColor=#66bbff;fontSize=16;fontStyle=1;" parent="r4ZFmtUiPwfncVj38mZl-27" vertex="1">
          <mxGeometry y="1" width="80" height="30" relative="1" as="geometry">
            <mxPoint x="20" y="-50" as="offset" />
          </mxGeometry>
        </mxCell>
        <mxCell id="r4ZFmtUiPwfncVj38mZl-39" value="&lt;h1&gt;LOGO&lt;/h1&gt;" style="text;html=1;strokeColor=none;fillColor=none;align=center;verticalAlign=middle;whiteSpace=wrap;rounded=0;fontFamily=Lucida Console;" parent="r4ZFmtUiPwfncVj38mZl-22" vertex="1">
          <mxGeometry x="30" y="140" width="160" height="50" as="geometry" />
        </mxCell>
        <mxCell id="r4ZFmtUiPwfncVj38mZl-40" value="Landing page background image" style="text;html=1;strokeColor=none;fillColor=none;align=center;verticalAlign=middle;whiteSpace=wrap;rounded=0;fontFamily=Lucida Console;" parent="r4ZFmtUiPwfncVj38mZl-22" vertex="1">
          <mxGeometry x="90" y="240" width="590" height="50" as="geometry" />
        </mxCell>
      </root>
    </mxGraphModel>
  </diagram>
  <diagram id="SdDT5Pm5Am6Sln-kGxi-" name="Page-2">
    
    <mxGraphModel dx="1021" dy="529" grid="1" gridSize="10" guides="1" tooltips="1" connect="1" arrows="1" fold="1" page="1" pageScale="1" pageWidth="850" pageHeight="1100" math="0" shadow="0">
      
      <root>
        
        <mxCell id="UwNg9cR-Iv84YpFg2Jbg-0" />
        
        <mxCell id="UwNg9cR-Iv84YpFg2Jbg-1" parent="UwNg9cR-Iv84YpFg2Jbg-0" />
        
        <mxCell id="H-qb_h-mlqxvCPXP53rR-0" value="" style="strokeWidth=1;shadow=0;dashed=0;align=center;html=1;shape=mxgraph.mockup.containers.browserWindow;rSize=0;strokeColor=#666666;strokeColor2=#008cff;strokeColor3=#c4c4c4;mainText=,;recursiveResize=0;fontFamily=Lucida Console;" vertex="1" parent="UwNg9cR-Iv84YpFg2Jbg-1">
          
          <mxGeometry x="50" y="80" width="760" height="990" as="geometry" />
          
        </mxCell>
        
        <mxCell id="H-qb_h-mlqxvCPXP53rR-1" value="zaiomotors" style="strokeWidth=1;shadow=0;dashed=0;align=center;html=1;shape=mxgraph.mockup.containers.anchor;fontSize=17;fontColor=#666666;align=left;" vertex="1" parent="H-qb_h-mlqxvCPXP53rR-0">
          
          <mxGeometry x="60" y="12" width="110" height="26" as="geometry" />
          
        </mxCell>
        
        <mxCell id="H-qb_h-mlqxvCPXP53rR-2" value="https://www.zaiomotors/listings" style="strokeWidth=1;shadow=0;dashed=0;align=center;html=1;shape=mxgraph.mockup.containers.anchor;rSize=0;fontSize=17;fontColor=#666666;align=left;" vertex="1" parent="H-qb_h-mlqxvCPXP53rR-0">
          
          <mxGeometry x="130" y="60" width="250" height="26" as="geometry" />
          
        </mxCell>
        
        <mxCell id="H-qb_h-mlqxvCPXP53rR-5" value="" style="verticalLabelPosition=bottom;shadow=0;dashed=0;align=center;html=1;verticalAlign=top;strokeWidth=1;shape=mxgraph.mockup.graphics.simpleIcon;strokeColor=#999999;fontFamily=Lucida Console;" vertex="1" parent="H-qb_h-mlqxvCPXP53rR-0">
          
          <mxGeometry x="40" y="140" width="160" height="50" as="geometry" />
          
        </mxCell>
        
        <mxCell id="H-qb_h-mlqxvCPXP53rR-6" value="&lt;h1&gt;LOGO&lt;/h1&gt;" style="text;html=1;strokeColor=none;fillColor=none;align=center;verticalAlign=middle;whiteSpace=wrap;rounded=0;fontFamily=Lucida Console;" vertex="1" parent="H-qb_h-mlqxvCPXP53rR-0">
          
          <mxGeometry x="40" y="140" width="160" height="50" as="geometry" />
          
        </mxCell>
        
        <mxCell id="H-qb_h-mlqxvCPXP53rR-7" value="" style="verticalLabelPosition=bottom;shadow=0;dashed=0;align=center;html=1;verticalAlign=top;strokeWidth=1;shape=mxgraph.mockup.graphics.simpleIcon;strokeColor=#999999;fillColor=#ffffff;fontFamily=Lucida Console;" vertex="1" parent="H-qb_h-mlqxvCPXP53rR-0">
          
          <mxGeometry x="70" y="220" width="220" height="80" as="geometry" />
          
        </mxCell>
        
        <mxCell id="H-qb_h-mlqxvCPXP53rR-8" value="" style="verticalLabelPosition=bottom;shadow=0;dashed=0;align=center;html=1;verticalAlign=top;strokeWidth=1;shape=mxgraph.mockup.graphics.simpleIcon;strokeColor=#999999;fillColor=#ffffff;fontFamily=Lucida Console;" vertex="1" parent="H-qb_h-mlqxvCPXP53rR-0">
          
          <mxGeometry x="445" y="370" width="220" height="80" as="geometry" />
          
        </mxCell>
        
        <mxCell id="H-qb_h-mlqxvCPXP53rR-10" value="" style="verticalLabelPosition=bottom;shadow=0;dashed=0;align=center;html=1;verticalAlign=top;strokeWidth=1;shape=mxgraph.mockup.graphics.simpleIcon;strokeColor=#999999;fillColor=#ffffff;fontFamily=Lucida Console;" vertex="1" parent="H-qb_h-mlqxvCPXP53rR-0">
          
          <mxGeometry x="80" y="370" width="220" height="80" as="geometry" />
          
        </mxCell>
        
        <mxCell id="H-qb_h-mlqxvCPXP53rR-11" value="" style="verticalLabelPosition=bottom;shadow=0;dashed=0;align=center;html=1;verticalAlign=top;strokeWidth=1;shape=mxgraph.mockup.graphics.simpleIcon;strokeColor=#999999;fillColor=#ffffff;fontFamily=Lucida Console;" vertex="1" parent="H-qb_h-mlqxvCPXP53rR-0">
          
          <mxGeometry x="450" y="500" width="210" height="90" as="geometry" />
          
        </mxCell>
        
        <mxCell id="H-qb_h-mlqxvCPXP53rR-13" value="" style="verticalLabelPosition=bottom;shadow=0;dashed=0;align=center;html=1;verticalAlign=top;strokeWidth=1;shape=mxgraph.mockup.graphics.simpleIcon;strokeColor=#999999;fillColor=#ffffff;fontFamily=Lucida Console;" vertex="1" parent="H-qb_h-mlqxvCPXP53rR-0">
          
          <mxGeometry x="70" y="660" width="220" height="80" as="geometry" />
          
        </mxCell>
        
        <mxCell id="H-qb_h-mlqxvCPXP53rR-14" value="" style="verticalLabelPosition=bottom;shadow=0;dashed=0;align=center;html=1;verticalAlign=top;strokeWidth=1;shape=mxgraph.mockup.graphics.simpleIcon;strokeColor=#999999;fillColor=#ffffff;fontFamily=Lucida Console;" vertex="1" parent="H-qb_h-mlqxvCPXP53rR-0">
          
          <mxGeometry x="450" y="660" width="220" height="80" as="geometry" />
          
        </mxCell>
        
        <mxCell id="H-qb_h-mlqxvCPXP53rR-16" value="" style="verticalLabelPosition=bottom;shadow=0;dashed=0;align=center;html=1;verticalAlign=top;strokeWidth=1;shape=mxgraph.mockup.graphics.simpleIcon;strokeColor=#999999;fillColor=#ffffff;fontFamily=Lucida Console;" vertex="1" parent="H-qb_h-mlqxvCPXP53rR-0">
          
          <mxGeometry x="70" y="810" width="220" height="80" as="geometry" />
          
        </mxCell>
        
        <mxCell id="H-qb_h-mlqxvCPXP53rR-17" value="" style="verticalLabelPosition=bottom;shadow=0;dashed=0;align=center;html=1;verticalAlign=top;strokeWidth=1;shape=mxgraph.mockup.graphics.simpleIcon;strokeColor=#999999;fillColor=#ffffff;fontFamily=Lucida Console;" vertex="1" parent="H-qb_h-mlqxvCPXP53rR-0">
          
          <mxGeometry x="80" y="510" width="220" height="80" as="geometry" />
          
        </mxCell>
        
        <mxCell id="H-qb_h-mlqxvCPXP53rR-19" value="" style="verticalLabelPosition=bottom;shadow=0;dashed=0;align=center;html=1;verticalAlign=top;strokeWidth=1;shape=mxgraph.mockup.graphics.simpleIcon;strokeColor=#999999;fillColor=#ffffff;fontFamily=Lucida Console;" vertex="1" parent="H-qb_h-mlqxvCPXP53rR-0">
          
          <mxGeometry x="445" y="220" width="220" height="80" as="geometry" />
          
        </mxCell>
        
        <mxCell id="H-qb_h-mlqxvCPXP53rR-20" value="" style="verticalLabelPosition=bottom;shadow=0;dashed=0;align=center;html=1;verticalAlign=top;strokeWidth=1;shape=mxgraph.mockup.graphics.simpleIcon;strokeColor=#999999;fillColor=#ffffff;fontFamily=Lucida Console;" vertex="1" parent="H-qb_h-mlqxvCPXP53rR-0">
          
          <mxGeometry x="450" y="810" width="220" height="80" as="geometry" />
          
        </mxCell>
        
        <mxCell id="H-qb_h-mlqxvCPXP53rR-28" value="image of listed car" style="text;html=1;strokeColor=none;fillColor=none;align=center;verticalAlign=middle;whiteSpace=wrap;rounded=0;fontFamily=Lucida Console;" vertex="1" parent="H-qb_h-mlqxvCPXP53rR-0">
          
          <mxGeometry x="70" y="250" width="210" height="20" as="geometry" />
          
        </mxCell>
        
        <mxCell id="H-qb_h-mlqxvCPXP53rR-29" value="image of listed car" style="text;html=1;strokeColor=none;fillColor=none;align=center;verticalAlign=middle;whiteSpace=wrap;rounded=0;fontFamily=Lucida Console;" vertex="1" parent="H-qb_h-mlqxvCPXP53rR-0">
          
          <mxGeometry x="90" y="400" width="200" height="20" as="geometry" />
          
        </mxCell>
        
        <mxCell id="H-qb_h-mlqxvCPXP53rR-30" value="image of listed car" style="text;html=1;strokeColor=none;fillColor=none;align=center;verticalAlign=middle;whiteSpace=wrap;rounded=0;fontFamily=Lucida Console;" vertex="1" parent="H-qb_h-mlqxvCPXP53rR-0">
          
          <mxGeometry x="450" y="260" width="200" height="20" as="geometry" />
          
        </mxCell>
        
        <mxCell id="H-qb_h-mlqxvCPXP53rR-31" value="image of listed car" style="text;html=1;strokeColor=none;fillColor=none;align=center;verticalAlign=middle;whiteSpace=wrap;rounded=0;fontFamily=Lucida Console;" vertex="1" parent="H-qb_h-mlqxvCPXP53rR-0">
          
          <mxGeometry x="460" y="400" width="190" height="20" as="geometry" />
          
        </mxCell>
        
        <mxCell id="H-qb_h-mlqxvCPXP53rR-32" value="image of listed car" style="text;html=1;strokeColor=none;fillColor=none;align=center;verticalAlign=middle;whiteSpace=wrap;rounded=0;fontFamily=Lucida Console;" vertex="1" parent="H-qb_h-mlqxvCPXP53rR-0">
          
          <mxGeometry x="110" y="540" width="170" height="20" as="geometry" />
          
        </mxCell>
        
        <mxCell id="H-qb_h-mlqxvCPXP53rR-33" value="image of listed car" style="text;html=1;strokeColor=none;fillColor=none;align=center;verticalAlign=middle;whiteSpace=wrap;rounded=0;fontFamily=Lucida Console;" vertex="1" parent="H-qb_h-mlqxvCPXP53rR-0">
          
          <mxGeometry x="450" y="540" width="210" height="20" as="geometry" />
          
        </mxCell>
        
        <mxCell id="H-qb_h-mlqxvCPXP53rR-34" value="image of lsted car" style="text;html=1;strokeColor=none;fillColor=none;align=center;verticalAlign=middle;whiteSpace=wrap;rounded=0;fontFamily=Lucida Console;" vertex="1" parent="H-qb_h-mlqxvCPXP53rR-0">
          
          <mxGeometry x="110" y="690" width="170" height="20" as="geometry" />
          
        </mxCell>
        
        <mxCell id="H-qb_h-mlqxvCPXP53rR-35" value="image of listed car" style="text;html=1;strokeColor=none;fillColor=none;align=center;verticalAlign=middle;whiteSpace=wrap;rounded=0;fontFamily=Lucida Console;" vertex="1" parent="H-qb_h-mlqxvCPXP53rR-0">
          
          <mxGeometry x="110" y="835" width="160" height="30" as="geometry" />
          
        </mxCell>
        
        <mxCell id="H-qb_h-mlqxvCPXP53rR-36" value="image of listed car" style="text;html=1;strokeColor=none;fillColor=none;align=center;verticalAlign=middle;whiteSpace=wrap;rounded=0;fontFamily=Lucida Console;" vertex="1" parent="H-qb_h-mlqxvCPXP53rR-0">
          
          <mxGeometry x="500" y="830" width="150" height="30" as="geometry" />
          
        </mxCell>
        
        <mxCell id="H-qb_h-mlqxvCPXP53rR-37" value="image of listed car" style="text;html=1;strokeColor=none;fillColor=none;align=center;verticalAlign=middle;whiteSpace=wrap;rounded=0;fontFamily=Lucida Console;" vertex="1" parent="H-qb_h-mlqxvCPXP53rR-0">
          
          <mxGeometry x="490" y="680" width="160" height="30" as="geometry" />
          
        </mxCell>
        
        <mxCell id="H-qb_h-mlqxvCPXP53rR-40" value="Car details" style="text;html=1;strokeColor=none;fillColor=none;align=left;verticalAlign=middle;whiteSpace=wrap;rounded=0;fontFamily=Lucida Console;" vertex="1" parent="H-qb_h-mlqxvCPXP53rR-0">
          
          <mxGeometry x="70" y="320" width="210" height="20" as="geometry" />
          
        </mxCell>
        
        <mxCell id="H-qb_h-mlqxvCPXP53rR-41" value="Car details" style="text;html=1;strokeColor=none;fillColor=none;align=left;verticalAlign=middle;whiteSpace=wrap;rounded=0;fontFamily=Lucida Console;" vertex="1" parent="H-qb_h-mlqxvCPXP53rR-0">
          
          <mxGeometry x="450" y="310" width="210" height="20" as="geometry" />
          
        </mxCell>
        
        <mxCell id="H-qb_h-mlqxvCPXP53rR-42" value="Car details" style="text;html=1;strokeColor=none;fillColor=none;align=left;verticalAlign=middle;whiteSpace=wrap;rounded=0;fontFamily=Lucida Console;" vertex="1" parent="H-qb_h-mlqxvCPXP53rR-0">
          
          <mxGeometry x="80" y="460" width="220" height="20" as="geometry" />
          
        </mxCell>
        
        <mxCell id="H-qb_h-mlqxvCPXP53rR-43" value="Car details" style="text;html=1;strokeColor=none;fillColor=none;align=left;verticalAlign=middle;whiteSpace=wrap;rounded=0;fontFamily=Lucida Console;" vertex="1" parent="H-qb_h-mlqxvCPXP53rR-0">
          
          <mxGeometry x="450" y="460" width="210" height="20" as="geometry" />
          
        </mxCell>
        
        <mxCell id="H-qb_h-mlqxvCPXP53rR-44" value="Car details" style="text;html=1;strokeColor=none;fillColor=none;align=left;verticalAlign=middle;whiteSpace=wrap;rounded=0;fontFamily=Lucida Console;" vertex="1" parent="H-qb_h-mlqxvCPXP53rR-0">
          
          <mxGeometry x="80" y="610" width="220" height="20" as="geometry" />
          
        </mxCell>
        
        <mxCell id="H-qb_h-mlqxvCPXP53rR-45" value="Car details" style="text;html=1;strokeColor=none;fillColor=none;align=left;verticalAlign=middle;whiteSpace=wrap;rounded=0;fontFamily=Lucida Console;" vertex="1" parent="H-qb_h-mlqxvCPXP53rR-0">
          
          <mxGeometry x="450" y="600" width="210" height="20" as="geometry" />
          
        </mxCell>
        
        <mxCell id="H-qb_h-mlqxvCPXP53rR-46" value="Car details" style="text;html=1;strokeColor=none;fillColor=none;align=left;verticalAlign=middle;whiteSpace=wrap;rounded=0;fontFamily=Lucida Console;" vertex="1" parent="H-qb_h-mlqxvCPXP53rR-0">
          
          <mxGeometry x="70" y="750" width="220" height="20" as="geometry" />
          
        </mxCell>
        
        <mxCell id="H-qb_h-mlqxvCPXP53rR-47" value="Car details" style="text;html=1;strokeColor=none;fillColor=none;align=left;verticalAlign=middle;whiteSpace=wrap;rounded=0;fontFamily=Lucida Console;" vertex="1" parent="H-qb_h-mlqxvCPXP53rR-0">
          
          <mxGeometry x="450" y="750" width="220" height="20" as="geometry" />
          
        </mxCell>
        
        <mxCell id="H-qb_h-mlqxvCPXP53rR-48" value="Car details" style="text;html=1;strokeColor=none;fillColor=none;align=left;verticalAlign=middle;whiteSpace=wrap;rounded=0;fontFamily=Lucida Console;" vertex="1" parent="H-qb_h-mlqxvCPXP53rR-0">
          
          <mxGeometry x="70" y="910" width="220" height="20" as="geometry" />
          
        </mxCell>
        
        <mxCell id="H-qb_h-mlqxvCPXP53rR-49" value="Car details" style="text;html=1;strokeColor=none;fillColor=none;align=left;verticalAlign=middle;whiteSpace=wrap;rounded=0;fontFamily=Lucida Console;" vertex="1" parent="H-qb_h-mlqxvCPXP53rR-0">
          
          <mxGeometry x="450" y="920" width="220" height="20" as="geometry" />
          
        </mxCell>
        
        <mxCell id="H-qb_h-mlqxvCPXP53rR-4" value="&lt;p style=&quot;font-size: 15px&quot;&gt;Listing page&lt;/p&gt;" style="text;html=1;strokeColor=none;fillColor=none;align=center;verticalAlign=middle;whiteSpace=wrap;rounded=0;fontFamily=Lucida Console;" vertex="1" parent="UwNg9cR-Iv84YpFg2Jbg-1">
          
          <mxGeometry x="40" y="40" width="760" height="40" as="geometry" />
          
        </mxCell>
        
      </root>
      
    </mxGraphModel>
    
  </diagram>
  <diagram id="OsgzvlDfmTfgHi538CFv" name="Page-3">
    
    <mxGraphModel dx="1113" dy="529" grid="1" gridSize="10" guides="1" tooltips="1" connect="1" arrows="1" fold="1" page="1" pageScale="1" pageWidth="850" pageHeight="1100" math="0" shadow="0">
      
      <root>
        
        <mxCell id="SgdG0yUAVpk4jJ0CoJJc-0" />
        
        <mxCell id="SgdG0yUAVpk4jJ0CoJJc-1" parent="SgdG0yUAVpk4jJ0CoJJc-0" />
        
        <mxCell id="SgdG0yUAVpk4jJ0CoJJc-2" value="" style="strokeWidth=1;shadow=0;dashed=0;align=center;html=1;shape=mxgraph.mockup.containers.browserWindow;rSize=0;strokeColor=#666666;strokeColor2=#008cff;strokeColor3=#c4c4c4;mainText=,;recursiveResize=0;fontFamily=Lucida Console;" vertex="1" parent="SgdG0yUAVpk4jJ0CoJJc-1">
          
          <mxGeometry x="30" y="80" width="790" height="980" as="geometry" />
          
        </mxCell>
        
        <mxCell id="SgdG0yUAVpk4jJ0CoJJc-3" value="Zaio motors" style="strokeWidth=1;shadow=0;dashed=0;align=center;html=1;shape=mxgraph.mockup.containers.anchor;fontSize=17;fontColor=#666666;align=left;" vertex="1" parent="SgdG0yUAVpk4jJ0CoJJc-2">
          
          <mxGeometry x="60" y="12" width="110" height="26" as="geometry" />
          
        </mxCell>
        
        <mxCell id="SgdG0yUAVpk4jJ0CoJJc-4" value="https://www.zaiomotors/bookings" style="strokeWidth=1;shadow=0;dashed=0;align=center;html=1;shape=mxgraph.mockup.containers.anchor;rSize=0;fontSize=17;fontColor=#666666;align=left;" vertex="1" parent="SgdG0yUAVpk4jJ0CoJJc-2">
          
          <mxGeometry x="130" y="60" width="250" height="26" as="geometry" />
          
        </mxCell>
        
        <mxCell id="SgdG0yUAVpk4jJ0CoJJc-6" value="" style="verticalLabelPosition=bottom;shadow=0;dashed=0;align=center;html=1;verticalAlign=top;strokeWidth=1;shape=mxgraph.mockup.graphics.simpleIcon;strokeColor=#999999;fontFamily=Lucida Console;" vertex="1" parent="SgdG0yUAVpk4jJ0CoJJc-2">
          
          <mxGeometry x="30" y="140" width="140" height="50" as="geometry" />
          
        </mxCell>
        
        <mxCell id="SgdG0yUAVpk4jJ0CoJJc-7" value="&lt;h1&gt;Logo&lt;/h1&gt;" style="text;html=1;strokeColor=none;fillColor=none;align=center;verticalAlign=middle;whiteSpace=wrap;rounded=0;fontFamily=Lucida Console;" vertex="1" parent="SgdG0yUAVpk4jJ0CoJJc-2">
          
          <mxGeometry x="30" y="140" width="140" height="50" as="geometry" />
          
        </mxCell>
        
        <mxCell id="SgdG0yUAVpk4jJ0CoJJc-8" value="" style="verticalLabelPosition=bottom;shadow=0;dashed=0;align=center;html=1;verticalAlign=top;strokeWidth=1;shape=mxgraph.mockup.graphics.simpleIcon;strokeColor=#999999;fontFamily=Lucida Console;" vertex="1" parent="SgdG0yUAVpk4jJ0CoJJc-2">
          
          <mxGeometry x="30" y="230" width="420" height="250" as="geometry" />
          
        </mxCell>
        
        <mxCell id="SgdG0yUAVpk4jJ0CoJJc-9" value="Image of selected car" style="text;html=1;strokeColor=none;fillColor=none;align=center;verticalAlign=middle;whiteSpace=wrap;rounded=0;fontFamily=Lucida Console;" vertex="1" parent="SgdG0yUAVpk4jJ0CoJJc-2">
          
          <mxGeometry x="130" y="330" width="200" height="35" as="geometry" />
          
        </mxCell>
        
        <mxCell id="SgdG0yUAVpk4jJ0CoJJc-118" value="&lt;h1&gt;Heading&lt;/h1&gt;&lt;p&gt;Lorem ipsum dolor sit amet, consectetur adipisicing elit, sed do eiusmod tempor incididunt ut labore et dolore magna aliqua.&lt;/p&gt;" style="text;html=1;strokeColor=none;fillColor=none;spacing=5;spacingTop=-20;whiteSpace=wrap;overflow=hidden;rounded=0;fontFamily=Lucida Console;align=left;" vertex="1" parent="SgdG0yUAVpk4jJ0CoJJc-2">
          
          <mxGeometry x="20" y="800" width="393" height="160" as="geometry" />
          
        </mxCell>
        
        <mxCell id="SgdG0yUAVpk4jJ0CoJJc-119" value="more details about selected car" style="text;html=1;strokeColor=none;fillColor=none;align=center;verticalAlign=middle;whiteSpace=wrap;rounded=0;fontFamily=Lucida Console;" vertex="1" parent="SgdG0yUAVpk4jJ0CoJJc-2">
          
          <mxGeometry x="155" y="810" width="240" height="20" as="geometry" />
          
        </mxCell>
        
        <mxCell id="SgdG0yUAVpk4jJ0CoJJc-120" value="Book car" style="strokeWidth=1;shadow=0;dashed=0;align=center;html=1;shape=mxgraph.mockup.buttons.button;strokeColor=#666666;fontColor=#ffffff;mainText=;buttonStyle=round;fontSize=17;fontStyle=1;fillColor=#008cff;whiteSpace=wrap;" vertex="1" parent="SgdG0yUAVpk4jJ0CoJJc-2">
          
          <mxGeometry x="480" y="670" width="150" height="50" as="geometry" />
          
        </mxCell>
        
        <mxCell id="SgdG0yUAVpk4jJ0CoJJc-121" value="Car name and price" style="text;html=1;strokeColor=none;fillColor=none;align=left;verticalAlign=middle;whiteSpace=wrap;rounded=0;fontFamily=Lucida Console;" vertex="1" parent="SgdG0yUAVpk4jJ0CoJJc-2">
          
          <mxGeometry x="40" y="500" width="410" height="40" as="geometry" />
          
        </mxCell>
        
        <mxCell id="SgdG0yUAVpk4jJ0CoJJc-122" value="date picker" style="text;html=1;strokeColor=none;fillColor=none;align=center;verticalAlign=middle;whiteSpace=wrap;rounded=0;fontFamily=Lucida Console;" vertex="1" parent="SgdG0yUAVpk4jJ0CoJJc-2">
          
          <mxGeometry x="255" y="620" width="200" height="30" as="geometry" />
          
        </mxCell>
        
        <mxCell id="SgdG0yUAVpk4jJ0CoJJc-12" value="" style="strokeWidth=1;shadow=0;dashed=0;align=center;html=1;shape=mxgraph.mockup.forms.rrect;rSize=5;strokeColor=#999999;fillColor=#ffffff;fontFamily=Lucida Console;" vertex="1" parent="SgdG0yUAVpk4jJ0CoJJc-2">
          
          <mxGeometry x="25" y="670" width="430" height="100" as="geometry" />
          
        </mxCell>
        
        <mxCell id="SgdG0yUAVpk4jJ0CoJJc-13" value="October 2014" style="strokeWidth=1;shadow=0;dashed=0;align=center;html=1;shape=mxgraph.mockup.forms.anchor;fontColor=#999999;" vertex="1" parent="SgdG0yUAVpk4jJ0CoJJc-12">
          
          <mxGeometry x="80.625" y="4.571428571428571" width="268.75" height="11.428571428571427" as="geometry" />
          
        </mxCell>
        
        <mxCell id="SgdG0yUAVpk4jJ0CoJJc-14" value="&lt;" style="strokeWidth=1;shadow=0;dashed=0;align=center;html=1;shape=mxgraph.mockup.forms.rrect;rSize=4;strokeColor=#999999;fontColor=#008cff;fontSize=19;fontStyle=1;" vertex="1" parent="SgdG0yUAVpk4jJ0CoJJc-12">
          
          <mxGeometry x="21.5" y="4.571428571428571" width="67.1875" height="11.428571428571427" as="geometry" />
          
        </mxCell>
        
        <mxCell id="SgdG0yUAVpk4jJ0CoJJc-15" value="&gt;" style="strokeWidth=1;shadow=0;dashed=0;align=center;html=1;shape=mxgraph.mockup.forms.rrect;rSize=4;strokeColor=#999999;fontColor=#008cff;fontSize=19;fontStyle=1;" vertex="1" parent="SgdG0yUAVpk4jJ0CoJJc-12">
          
          <mxGeometry x="341.3125" y="4.571428571428571" width="67.1875" height="11.428571428571427" as="geometry" />
          
        </mxCell>
        
        <mxCell id="SgdG0yUAVpk4jJ0CoJJc-16" value="Mo" style="strokeWidth=1;shadow=0;dashed=0;align=center;html=1;shape=mxgraph.mockup.forms.anchor;fontColor=#999999;" vertex="1" parent="SgdG0yUAVpk4jJ0CoJJc-12">
          
          <mxGeometry x="26.875" y="15.999999999999998" width="53.75" height="11.428571428571427" as="geometry" />
          
        </mxCell>
        
        <mxCell id="SgdG0yUAVpk4jJ0CoJJc-17" value="Tu" style="strokeWidth=1;shadow=0;dashed=0;align=center;html=1;shape=mxgraph.mockup.forms.anchor;fontColor=#999999;" vertex="1" parent="SgdG0yUAVpk4jJ0CoJJc-12">
          
          <mxGeometry x="80.625" y="15.999999999999998" width="53.75" height="11.428571428571427" as="geometry" />
          
        </mxCell>
        
        <mxCell id="SgdG0yUAVpk4jJ0CoJJc-18" value="We" style="strokeWidth=1;shadow=0;dashed=0;align=center;html=1;shape=mxgraph.mockup.forms.anchor;fontColor=#999999;" vertex="1" parent="SgdG0yUAVpk4jJ0CoJJc-12">
          
          <mxGeometry x="134.375" y="15.999999999999998" width="53.75" height="11.428571428571427" as="geometry" />
          
        </mxCell>
        
        <mxCell id="SgdG0yUAVpk4jJ0CoJJc-19" value="Th" style="strokeWidth=1;shadow=0;dashed=0;align=center;html=1;shape=mxgraph.mockup.forms.anchor;fontColor=#999999;" vertex="1" parent="SgdG0yUAVpk4jJ0CoJJc-12">
          
          <mxGeometry x="188.125" y="15.999999999999998" width="53.75" height="11.428571428571427" as="geometry" />
          
        </mxCell>
        
        <mxCell id="SgdG0yUAVpk4jJ0CoJJc-20" value="Fr" style="strokeWidth=1;shadow=0;dashed=0;align=center;html=1;shape=mxgraph.mockup.forms.anchor;fontColor=#999999;" vertex="1" parent="SgdG0yUAVpk4jJ0CoJJc-12">
          
          <mxGeometry x="241.875" y="15.999999999999998" width="53.75" height="11.428571428571427" as="geometry" />
          
        </mxCell>
        
        <mxCell id="SgdG0yUAVpk4jJ0CoJJc-21" value="Sa" style="strokeWidth=1;shadow=0;dashed=0;align=center;html=1;shape=mxgraph.mockup.forms.anchor;fontColor=#999999;" vertex="1" parent="SgdG0yUAVpk4jJ0CoJJc-12">
          
          <mxGeometry x="295.625" y="15.999999999999998" width="53.75" height="11.428571428571427" as="geometry" />
          
        </mxCell>
        
        <mxCell id="SgdG0yUAVpk4jJ0CoJJc-22" value="Su" style="strokeWidth=1;shadow=0;dashed=0;align=center;html=1;shape=mxgraph.mockup.forms.anchor;fontColor=#999999;" vertex="1" parent="SgdG0yUAVpk4jJ0CoJJc-12">
          
          <mxGeometry x="349.375" y="15.999999999999998" width="53.75" height="11.428571428571427" as="geometry" />
          
        </mxCell>
        
        <mxCell id="SgdG0yUAVpk4jJ0CoJJc-23" value="1" style="strokeWidth=1;shadow=0;dashed=0;align=center;html=1;shape=mxgraph.mockup.forms.rrect;rSize=0;strokeColor=#999999;fontColor=#999999;" vertex="1" parent="SgdG0yUAVpk4jJ0CoJJc-12">
          
          <mxGeometry x="26.875" y="27.42857142857143" width="53.75" height="11.428571428571427" as="geometry" />
          
        </mxCell>
        
        <mxCell id="SgdG0yUAVpk4jJ0CoJJc-24" value="2" style="strokeWidth=1;shadow=0;dashed=0;align=center;html=1;shape=mxgraph.mockup.forms.rrect;rSize=0;strokeColor=#999999;fontColor=#999999;" vertex="1" parent="SgdG0yUAVpk4jJ0CoJJc-12">
          
          <mxGeometry x="80.625" y="27.42857142857143" width="53.75" height="11.428571428571427" as="geometry" />
          
        </mxCell>
        
        <mxCell id="SgdG0yUAVpk4jJ0CoJJc-25" value="3" style="strokeWidth=1;shadow=0;dashed=0;align=center;html=1;shape=mxgraph.mockup.forms.rrect;rSize=0;strokeColor=#999999;fontColor=#999999;" vertex="1" parent="SgdG0yUAVpk4jJ0CoJJc-12">
          
          <mxGeometry x="134.375" y="27.42857142857143" width="53.75" height="11.428571428571427" as="geometry" />
          
        </mxCell>
        
        <mxCell id="SgdG0yUAVpk4jJ0CoJJc-26" value="4" style="strokeWidth=1;shadow=0;dashed=0;align=center;html=1;shape=mxgraph.mockup.forms.rrect;rSize=0;strokeColor=#999999;fontColor=#999999;" vertex="1" parent="SgdG0yUAVpk4jJ0CoJJc-12">
          
          <mxGeometry x="188.125" y="27.42857142857143" width="53.75" height="11.428571428571427" as="geometry" />
          
        </mxCell>
        
        <mxCell id="SgdG0yUAVpk4jJ0CoJJc-27" value="5" style="strokeWidth=1;shadow=0;dashed=0;align=center;html=1;shape=mxgraph.mockup.forms.rrect;rSize=0;strokeColor=#999999;fontColor=#999999;" vertex="1" parent="SgdG0yUAVpk4jJ0CoJJc-12">
          
          <mxGeometry x="241.875" y="27.42857142857143" width="53.75" height="11.428571428571427" as="geometry" />
          
        </mxCell>
        
        <mxCell id="SgdG0yUAVpk4jJ0CoJJc-28" value="6" style="strokeWidth=1;shadow=0;dashed=0;align=center;html=1;shape=mxgraph.mockup.forms.rrect;rSize=0;strokeColor=#999999;fontColor=#999999;" vertex="1" parent="SgdG0yUAVpk4jJ0CoJJc-12">
          
          <mxGeometry x="295.625" y="27.42857142857143" width="53.75" height="11.428571428571427" as="geometry" />
          
        </mxCell>
        
        <mxCell id="SgdG0yUAVpk4jJ0CoJJc-29" value="7" style="strokeWidth=1;shadow=0;dashed=0;align=center;html=1;shape=mxgraph.mockup.forms.rrect;rSize=0;strokeColor=#999999;fontColor=#999999;" vertex="1" parent="SgdG0yUAVpk4jJ0CoJJc-12">
          
          <mxGeometry x="349.375" y="27.42857142857143" width="53.75" height="11.428571428571427" as="geometry" />
          
        </mxCell>
        
        <mxCell id="SgdG0yUAVpk4jJ0CoJJc-30" value="8" style="strokeWidth=1;shadow=0;dashed=0;align=center;html=1;shape=mxgraph.mockup.forms.rrect;rSize=0;strokeColor=#999999;fontColor=#999999;" vertex="1" parent="SgdG0yUAVpk4jJ0CoJJc-12">
          
          <mxGeometry x="26.875" y="38.857142857142854" width="53.75" height="11.428571428571427" as="geometry" />
          
        </mxCell>
        
        <mxCell id="SgdG0yUAVpk4jJ0CoJJc-31" value="9" style="strokeWidth=1;shadow=0;dashed=0;align=center;html=1;shape=mxgraph.mockup.forms.rrect;rSize=0;strokeColor=#999999;fontColor=#999999;" vertex="1" parent="SgdG0yUAVpk4jJ0CoJJc-12">
          
          <mxGeometry x="80.625" y="38.857142857142854" width="53.75" height="11.428571428571427" as="geometry" />
          
        </mxCell>
        
        <mxCell id="SgdG0yUAVpk4jJ0CoJJc-32" value="10" style="strokeWidth=1;shadow=0;dashed=0;align=center;html=1;shape=mxgraph.mockup.forms.rrect;rSize=0;strokeColor=#999999;fontColor=#999999;" vertex="1" parent="SgdG0yUAVpk4jJ0CoJJc-12">
          
          <mxGeometry x="134.375" y="38.857142857142854" width="53.75" height="11.428571428571427" as="geometry" />
          
        </mxCell>
        
        <mxCell id="SgdG0yUAVpk4jJ0CoJJc-33" value="11" style="strokeWidth=1;shadow=0;dashed=0;align=center;html=1;shape=mxgraph.mockup.forms.rrect;rSize=0;strokeColor=#999999;fontColor=#999999;" vertex="1" parent="SgdG0yUAVpk4jJ0CoJJc-12">
          
          <mxGeometry x="188.125" y="38.857142857142854" width="53.75" height="11.428571428571427" as="geometry" />
          
        </mxCell>
        
        <mxCell id="SgdG0yUAVpk4jJ0CoJJc-34" value="12" style="strokeWidth=1;shadow=0;dashed=0;align=center;html=1;shape=mxgraph.mockup.forms.rrect;rSize=0;strokeColor=#999999;fontColor=#999999;" vertex="1" parent="SgdG0yUAVpk4jJ0CoJJc-12">
          
          <mxGeometry x="241.875" y="38.857142857142854" width="53.75" height="11.428571428571427" as="geometry" />
          
        </mxCell>
        
        <mxCell id="SgdG0yUAVpk4jJ0CoJJc-35" value="13" style="strokeWidth=1;shadow=0;dashed=0;align=center;html=1;shape=mxgraph.mockup.forms.rrect;rSize=0;strokeColor=#999999;fontColor=#999999;" vertex="1" parent="SgdG0yUAVpk4jJ0CoJJc-12">
          
          <mxGeometry x="295.625" y="38.857142857142854" width="53.75" height="11.428571428571427" as="geometry" />
          
        </mxCell>
        
        <mxCell id="SgdG0yUAVpk4jJ0CoJJc-36" value="14" style="strokeWidth=1;shadow=0;dashed=0;align=center;html=1;shape=mxgraph.mockup.forms.rrect;rSize=0;strokeColor=#999999;fontColor=#999999;" vertex="1" parent="SgdG0yUAVpk4jJ0CoJJc-12">
          
          <mxGeometry x="349.375" y="38.857142857142854" width="53.75" height="11.428571428571427" as="geometry" />
          
        </mxCell>
        
        <mxCell id="SgdG0yUAVpk4jJ0CoJJc-37" value="15" style="strokeWidth=1;shadow=0;dashed=0;align=center;html=1;shape=mxgraph.mockup.forms.rrect;rSize=0;strokeColor=#999999;fontColor=#999999;" vertex="1" parent="SgdG0yUAVpk4jJ0CoJJc-12">
          
          <mxGeometry x="26.875" y="50.285714285714285" width="53.75" height="11.428571428571427" as="geometry" />
          
        </mxCell>
        
        <mxCell id="SgdG0yUAVpk4jJ0CoJJc-38" value="16" style="strokeWidth=1;shadow=0;dashed=0;align=center;html=1;shape=mxgraph.mockup.forms.rrect;rSize=0;strokeColor=#999999;fontColor=#999999;" vertex="1" parent="SgdG0yUAVpk4jJ0CoJJc-12">
          
          <mxGeometry x="80.625" y="50.285714285714285" width="53.75" height="11.428571428571427" as="geometry" />
          
        </mxCell>
        
        <mxCell id="SgdG0yUAVpk4jJ0CoJJc-39" value="17" style="strokeWidth=1;shadow=0;dashed=0;align=center;html=1;shape=mxgraph.mockup.forms.rrect;rSize=0;strokeColor=#999999;fontColor=#999999;" vertex="1" parent="SgdG0yUAVpk4jJ0CoJJc-12">
          
          <mxGeometry x="134.375" y="50.285714285714285" width="53.75" height="11.428571428571427" as="geometry" />
          
        </mxCell>
        
        <mxCell id="SgdG0yUAVpk4jJ0CoJJc-40" value="18" style="strokeWidth=1;shadow=0;dashed=0;align=center;html=1;shape=mxgraph.mockup.forms.rrect;rSize=0;strokeColor=#999999;fontColor=#999999;" vertex="1" parent="SgdG0yUAVpk4jJ0CoJJc-12">
          
          <mxGeometry x="188.125" y="50.285714285714285" width="53.75" height="11.428571428571427" as="geometry" />
          
        </mxCell>
        
        <mxCell id="SgdG0yUAVpk4jJ0CoJJc-41" value="19" style="strokeWidth=1;shadow=0;dashed=0;align=center;html=1;shape=mxgraph.mockup.forms.rrect;rSize=0;strokeColor=#999999;fontColor=#999999;" vertex="1" parent="SgdG0yUAVpk4jJ0CoJJc-12">
          
          <mxGeometry x="241.875" y="50.285714285714285" width="53.75" height="11.428571428571427" as="geometry" />
          
        </mxCell>
        
        <mxCell id="SgdG0yUAVpk4jJ0CoJJc-42" value="20" style="strokeWidth=1;shadow=0;dashed=0;align=center;html=1;shape=mxgraph.mockup.forms.rrect;rSize=0;strokeColor=#999999;fontColor=#999999;" vertex="1" parent="SgdG0yUAVpk4jJ0CoJJc-12">
          
          <mxGeometry x="295.625" y="50.285714285714285" width="53.75" height="11.428571428571427" as="geometry" />
          
        </mxCell>
        
        <mxCell id="SgdG0yUAVpk4jJ0CoJJc-43" value="21" style="strokeWidth=1;shadow=0;dashed=0;align=center;html=1;shape=mxgraph.mockup.forms.rrect;rSize=0;strokeColor=#999999;fontColor=#999999;" vertex="1" parent="SgdG0yUAVpk4jJ0CoJJc-12">
          
          <mxGeometry x="349.375" y="50.285714285714285" width="53.75" height="11.428571428571427" as="geometry" />
          
        </mxCell>
        
        <mxCell id="SgdG0yUAVpk4jJ0CoJJc-44" value="22" style="strokeWidth=1;shadow=0;dashed=0;align=center;html=1;shape=mxgraph.mockup.forms.rrect;rSize=0;strokeColor=#999999;fontColor=#999999;" vertex="1" parent="SgdG0yUAVpk4jJ0CoJJc-12">
          
          <mxGeometry x="26.875" y="61.71428571428571" width="53.75" height="11.428571428571427" as="geometry" />
          
        </mxCell>
        
        <mxCell id="SgdG0yUAVpk4jJ0CoJJc-45" value="23" style="strokeWidth=1;shadow=0;dashed=0;align=center;html=1;shape=mxgraph.mockup.forms.rrect;rSize=0;strokeColor=#999999;fontColor=#999999;" vertex="1" parent="SgdG0yUAVpk4jJ0CoJJc-12">
          
          <mxGeometry x="80.625" y="61.71428571428571" width="53.75" height="11.428571428571427" as="geometry" />
          
        </mxCell>
        
        <mxCell id="SgdG0yUAVpk4jJ0CoJJc-46" value="25" style="strokeWidth=1;shadow=0;dashed=0;align=center;html=1;shape=mxgraph.mockup.forms.rrect;rSize=0;strokeColor=#999999;fontColor=#999999;" vertex="1" parent="SgdG0yUAVpk4jJ0CoJJc-12">
          
          <mxGeometry x="188.125" y="61.71428571428571" width="53.75" height="11.428571428571427" as="geometry" />
          
        </mxCell>
        
        <mxCell id="SgdG0yUAVpk4jJ0CoJJc-47" value="26" style="strokeWidth=1;shadow=0;dashed=0;align=center;html=1;shape=mxgraph.mockup.forms.rrect;rSize=0;strokeColor=#999999;fontColor=#999999;" vertex="1" parent="SgdG0yUAVpk4jJ0CoJJc-12">
          
          <mxGeometry x="241.875" y="61.71428571428571" width="53.75" height="11.428571428571427" as="geometry" />
          
        </mxCell>
        
        <mxCell id="SgdG0yUAVpk4jJ0CoJJc-48" value="27" style="strokeWidth=1;shadow=0;dashed=0;align=center;html=1;shape=mxgraph.mockup.forms.rrect;rSize=0;strokeColor=#999999;fontColor=#999999;" vertex="1" parent="SgdG0yUAVpk4jJ0CoJJc-12">
          
          <mxGeometry x="295.625" y="61.71428571428571" width="53.75" height="11.428571428571427" as="geometry" />
          
        </mxCell>
        
        <mxCell id="SgdG0yUAVpk4jJ0CoJJc-49" value="28" style="strokeWidth=1;shadow=0;dashed=0;align=center;html=1;shape=mxgraph.mockup.forms.rrect;rSize=0;strokeColor=#999999;fontColor=#999999;" vertex="1" parent="SgdG0yUAVpk4jJ0CoJJc-12">
          
          <mxGeometry x="349.375" y="61.71428571428571" width="53.75" height="11.428571428571427" as="geometry" />
          
        </mxCell>
        
        <mxCell id="SgdG0yUAVpk4jJ0CoJJc-50" value="29" style="strokeWidth=1;shadow=0;dashed=0;align=center;html=1;shape=mxgraph.mockup.forms.rrect;rSize=0;strokeColor=#999999;fontColor=#999999;" vertex="1" parent="SgdG0yUAVpk4jJ0CoJJc-12">
          
          <mxGeometry x="26.875" y="73.14285714285714" width="53.75" height="11.428571428571427" as="geometry" />
          
        </mxCell>
        
        <mxCell id="SgdG0yUAVpk4jJ0CoJJc-51" value="30" style="strokeWidth=1;shadow=0;dashed=0;align=center;html=1;shape=mxgraph.mockup.forms.rrect;rSize=0;strokeColor=#999999;fontColor=#999999;" vertex="1" parent="SgdG0yUAVpk4jJ0CoJJc-12">
          
          <mxGeometry x="80.625" y="73.14285714285714" width="53.75" height="11.428571428571427" as="geometry" />
          
        </mxCell>
        
        <mxCell id="SgdG0yUAVpk4jJ0CoJJc-52" value="31" style="strokeWidth=1;shadow=0;dashed=0;align=center;html=1;shape=mxgraph.mockup.forms.rrect;rSize=0;strokeColor=#999999;fontColor=#999999;" vertex="1" parent="SgdG0yUAVpk4jJ0CoJJc-12">
          
          <mxGeometry x="134.375" y="73.14285714285714" width="53.75" height="11.428571428571427" as="geometry" />
          
        </mxCell>
        
        <mxCell id="SgdG0yUAVpk4jJ0CoJJc-53" value="1" style="strokeWidth=1;shadow=0;dashed=0;align=center;html=1;shape=mxgraph.mockup.forms.rrect;rSize=0;strokeColor=#999999;fontColor=#999999;fillColor=#ddeeff;" vertex="1" parent="SgdG0yUAVpk4jJ0CoJJc-12">
          
          <mxGeometry x="188.125" y="73.14285714285714" width="53.75" height="11.428571428571427" as="geometry" />
          
        </mxCell>
        
        <mxCell id="SgdG0yUAVpk4jJ0CoJJc-54" value="2" style="strokeWidth=1;shadow=0;dashed=0;align=center;html=1;shape=mxgraph.mockup.forms.rrect;rSize=0;strokeColor=#999999;fontColor=#999999;fillColor=#ddeeff;" vertex="1" parent="SgdG0yUAVpk4jJ0CoJJc-12">
          
          <mxGeometry x="241.875" y="73.14285714285714" width="53.75" height="11.428571428571427" as="geometry" />
          
        </mxCell>
        
        <mxCell id="SgdG0yUAVpk4jJ0CoJJc-55" value="3" style="strokeWidth=1;shadow=0;dashed=0;align=center;html=1;shape=mxgraph.mockup.forms.rrect;rSize=0;strokeColor=#999999;fontColor=#999999;fillColor=#ddeeff;" vertex="1" parent="SgdG0yUAVpk4jJ0CoJJc-12">
          
          <mxGeometry x="295.625" y="73.14285714285714" width="53.75" height="11.428571428571427" as="geometry" />
          
        </mxCell>
        
        <mxCell id="SgdG0yUAVpk4jJ0CoJJc-56" value="4" style="strokeWidth=1;shadow=0;dashed=0;align=center;html=1;shape=mxgraph.mockup.forms.rrect;rSize=0;strokeColor=#999999;fontColor=#999999;fillColor=#ddeeff;" vertex="1" parent="SgdG0yUAVpk4jJ0CoJJc-12">
          
          <mxGeometry x="349.375" y="73.14285714285714" width="53.75" height="11.428571428571427" as="geometry" />
          
        </mxCell>
        
        <mxCell id="SgdG0yUAVpk4jJ0CoJJc-57" value="5" style="strokeWidth=1;shadow=0;dashed=0;align=center;html=1;shape=mxgraph.mockup.forms.rrect;rSize=0;strokeColor=#999999;fontColor=#999999;fillColor=#ddeeff;" vertex="1" parent="SgdG0yUAVpk4jJ0CoJJc-12">
          
          <mxGeometry x="26.875" y="84.57142857142857" width="53.75" height="11.428571428571427" as="geometry" />
          
        </mxCell>
        
        <mxCell id="SgdG0yUAVpk4jJ0CoJJc-58" value="6" style="strokeWidth=1;shadow=0;dashed=0;align=center;html=1;shape=mxgraph.mockup.forms.rrect;rSize=0;strokeColor=#999999;fontColor=#999999;fillColor=#ddeeff;" vertex="1" parent="SgdG0yUAVpk4jJ0CoJJc-12">
          
          <mxGeometry x="80.625" y="84.57142857142857" width="53.75" height="11.428571428571427" as="geometry" />
          
        </mxCell>
        
        <mxCell id="SgdG0yUAVpk4jJ0CoJJc-59" value="7" style="strokeWidth=1;shadow=0;dashed=0;align=center;html=1;shape=mxgraph.mockup.forms.rrect;rSize=0;strokeColor=#999999;fontColor=#999999;fillColor=#ddeeff;" vertex="1" parent="SgdG0yUAVpk4jJ0CoJJc-12">
          
          <mxGeometry x="134.375" y="84.57142857142857" width="53.75" height="11.428571428571427" as="geometry" />
          
        </mxCell>
        
        <mxCell id="SgdG0yUAVpk4jJ0CoJJc-60" value="8" style="strokeWidth=1;shadow=0;dashed=0;align=center;html=1;shape=mxgraph.mockup.forms.rrect;rSize=0;strokeColor=#999999;fontColor=#999999;fillColor=#ddeeff;" vertex="1" parent="SgdG0yUAVpk4jJ0CoJJc-12">
          
          <mxGeometry x="188.125" y="84.57142857142857" width="53.75" height="11.428571428571427" as="geometry" />
          
        </mxCell>
        
        <mxCell id="SgdG0yUAVpk4jJ0CoJJc-61" value="9" style="strokeWidth=1;shadow=0;dashed=0;align=center;html=1;shape=mxgraph.mockup.forms.rrect;rSize=0;strokeColor=#999999;fontColor=#999999;fillColor=#ddeeff;" vertex="1" parent="SgdG0yUAVpk4jJ0CoJJc-12">
          
          <mxGeometry x="241.875" y="84.57142857142857" width="53.75" height="11.428571428571427" as="geometry" />
          
        </mxCell>
        
        <mxCell id="SgdG0yUAVpk4jJ0CoJJc-62" value="10" style="strokeWidth=1;shadow=0;dashed=0;align=center;html=1;shape=mxgraph.mockup.forms.rrect;rSize=0;strokeColor=#999999;fontColor=#999999;fillColor=#ddeeff;" vertex="1" parent="SgdG0yUAVpk4jJ0CoJJc-12">
          
          <mxGeometry x="295.625" y="84.57142857142857" width="53.75" height="11.428571428571427" as="geometry" />
          
        </mxCell>
        
        <mxCell id="SgdG0yUAVpk4jJ0CoJJc-63" value="11" style="strokeWidth=1;shadow=0;dashed=0;align=center;html=1;shape=mxgraph.mockup.forms.rrect;rSize=0;strokeColor=#999999;fontColor=#999999;fillColor=#ddeeff;" vertex="1" parent="SgdG0yUAVpk4jJ0CoJJc-12">
          
          <mxGeometry x="349.375" y="84.57142857142857" width="53.75" height="11.428571428571427" as="geometry" />
          
        </mxCell>
        
        <mxCell id="SgdG0yUAVpk4jJ0CoJJc-64" value="24" style="strokeWidth=1;shadow=0;dashed=0;align=center;html=1;shape=mxgraph.mockup.forms.rrect;rSize=0;strokeColor=#ff0000;fontColor=#ffffff;strokeWidth=2;fillColor=#008cff;" vertex="1" parent="SgdG0yUAVpk4jJ0CoJJc-12">
          
          <mxGeometry x="134.375" y="61.71428571428571" width="53.75" height="11.428571428571427" as="geometry" />
          
        </mxCell>
        
        <mxCell id="b4Bik46jV37H9mKsq1tk-0" value="" style="verticalLabelPosition=bottom;shadow=0;dashed=0;align=center;html=1;verticalAlign=top;strokeWidth=1;shape=mxgraph.mockup.misc.rating;strokeColor=#999999;fillColor=#ffff00;emptyFillColor=#ffffff;grade=4;ratingScale=5;ratingStyle=star;fontFamily=Lucida Console;" vertex="1" parent="SgdG0yUAVpk4jJ0CoJJc-2">
          
          <mxGeometry x="25" y="590" width="225" height="30" as="geometry" />
          
        </mxCell>
        
        <mxCell id="SgdG0yUAVpk4jJ0CoJJc-5" value="&lt;p style=&quot;font-size: 17px&quot;&gt;Booking page&lt;/p&gt;" style="text;html=1;strokeColor=none;fillColor=none;align=center;verticalAlign=middle;whiteSpace=wrap;rounded=0;fontFamily=Lucida Console;" vertex="1" parent="SgdG0yUAVpk4jJ0CoJJc-1">
          
          <mxGeometry x="30" y="40" width="770" height="40" as="geometry" />
          
        </mxCell>
        
      </root>
      
    </mxGraphModel>
    
  </diagram>
  <diagram id="os9200sHEsPvMl1a31aJ" name="Page-4">
    <mxGraphModel dx="868" dy="450" grid="1" gridSize="10" guides="1" tooltips="1" connect="1" arrows="1" fold="1" page="1" pageScale="1" pageWidth="850" pageHeight="1100" math="0" shadow="0">
      <root>
        <mxCell id="2iowyeqtscNgEO5KB4yP-0" />
        <mxCell id="2iowyeqtscNgEO5KB4yP-1" parent="2iowyeqtscNgEO5KB4yP-0" />
        <mxCell id="2iowyeqtscNgEO5KB4yP-2" value="Payment page" style="text;html=1;strokeColor=none;fillColor=none;align=center;verticalAlign=middle;whiteSpace=wrap;rounded=0;fontFamily=Lucida Console;fontSize=19;" parent="2iowyeqtscNgEO5KB4yP-1" vertex="1">
          <mxGeometry x="40" y="40" width="750" height="40" as="geometry" />
        </mxCell>
        <mxCell id="2iowyeqtscNgEO5KB4yP-3" value="" style="strokeWidth=1;shadow=0;dashed=0;align=center;html=1;shape=mxgraph.mockup.containers.browserWindow;rSize=0;strokeColor=#666666;strokeColor2=#008cff;strokeColor3=#c4c4c4;mainText=,;recursiveResize=0;fontFamily=Lucida Console;" parent="2iowyeqtscNgEO5KB4yP-1" vertex="1">
          <mxGeometry x="40" y="90" width="770" height="970" as="geometry" />
        </mxCell>
        <mxCell id="2iowyeqtscNgEO5KB4yP-4" value="Zaio motors" style="strokeWidth=1;shadow=0;dashed=0;align=center;html=1;shape=mxgraph.mockup.containers.anchor;fontSize=17;fontColor=#666666;align=left;" parent="2iowyeqtscNgEO5KB4yP-3" vertex="1">
          <mxGeometry x="60" y="12" width="110" height="26" as="geometry" />
        </mxCell>
        <mxCell id="2iowyeqtscNgEO5KB4yP-5" value="https://www.zaiomotors/payment" style="strokeWidth=1;shadow=0;dashed=0;align=center;html=1;shape=mxgraph.mockup.containers.anchor;rSize=0;fontSize=17;fontColor=#666666;align=left;" parent="2iowyeqtscNgEO5KB4yP-3" vertex="1">
          <mxGeometry x="130" y="60" width="250" height="26" as="geometry" />
        </mxCell>
        <mxCell id="osQBgJ41b1jbki9NoInH-5" value="" style="verticalLabelPosition=bottom;shadow=0;dashed=0;align=center;html=1;verticalAlign=top;strokeWidth=1;shape=mxgraph.mockup.graphics.simpleIcon;strokeColor=#999999;fontFamily=Lucida Console;" parent="2iowyeqtscNgEO5KB4yP-3" vertex="1">
          <mxGeometry x="20" y="120" width="740" height="710" as="geometry" />
        </mxCell>
        <mxCell id="osQBgJ41b1jbki9NoInH-7" value="Back" style="strokeWidth=1;shadow=0;dashed=0;align=center;html=1;shape=mxgraph.mockup.buttons.button;strokeColor=#666666;fontColor=#ffffff;mainText=;buttonStyle=round;fontSize=17;fontStyle=1;fillColor=#008cff;whiteSpace=wrap;" parent="2iowyeqtscNgEO5KB4yP-3" vertex="1">
          <mxGeometry x="20" y="870" width="150" height="50" as="geometry" />
        </mxCell>
        <mxCell id="osQBgJ41b1jbki9NoInH-8" value="Pay now!" style="strokeWidth=1;shadow=0;dashed=0;align=center;html=1;shape=mxgraph.mockup.buttons.button;strokeColor=#666666;fontColor=#ffffff;mainText=;buttonStyle=round;fontSize=17;fontStyle=1;fillColor=#008cff;whiteSpace=wrap;" parent="2iowyeqtscNgEO5KB4yP-3" vertex="1">
          <mxGeometry x="600" y="870" width="150" height="50" as="geometry" />
        </mxCell>
        <mxCell id="osQBgJ41b1jbki9NoInH-6" value="Payment/card info form" style="text;html=1;strokeColor=none;fillColor=none;align=center;verticalAlign=middle;whiteSpace=wrap;rounded=0;fontFamily=Lucida Console;fontSize=17;" parent="2iowyeqtscNgEO5KB4yP-1" vertex="1">
          <mxGeometry x="220" y="470" width="440" height="120" as="geometry" />
        </mxCell>
      </root>
    </mxGraphModel>
  </diagram>
  <diagram id="jkMZAnu7YER3SrV-1oNP" name="Page-5">
    <mxGraphModel dx="1230" dy="643" grid="1" gridSize="10" guides="1" tooltips="1" connect="1" arrows="1" fold="1" page="1" pageScale="1" pageWidth="850" pageHeight="1100" math="0" shadow="0">
      <root>
        <mxCell id="Y5r2OwpMOubRcmJ43Hbg-0" />
        <mxCell id="Y5r2OwpMOubRcmJ43Hbg-1" parent="Y5r2OwpMOubRcmJ43Hbg-0" />
        <mxCell id="Y5r2OwpMOubRcmJ43Hbg-2" value="" style="strokeWidth=1;shadow=0;dashed=0;align=center;html=1;shape=mxgraph.mockup.containers.browserWindow;rSize=0;strokeColor=#666666;strokeColor2=#008cff;strokeColor3=#c4c4c4;mainText=,;recursiveResize=0;fontFamily=Lucida Console;fontSize=17;fontColor=#7A7A7A;" parent="Y5r2OwpMOubRcmJ43Hbg-1" vertex="1">
          <mxGeometry x="40" y="90" width="780" height="980" as="geometry" />
        </mxCell>
        <mxCell id="Y5r2OwpMOubRcmJ43Hbg-3" value="zaio motors" style="strokeWidth=1;shadow=0;dashed=0;align=center;html=1;shape=mxgraph.mockup.containers.anchor;fontSize=17;fontColor=#666666;align=left;" parent="Y5r2OwpMOubRcmJ43Hbg-2" vertex="1">
          <mxGeometry x="60" y="12" width="110" height="26" as="geometry" />
        </mxCell>
        <mxCell id="Y5r2OwpMOubRcmJ43Hbg-4" value="https://www.zaiomotors/dashboard" style="strokeWidth=1;shadow=0;dashed=0;align=center;html=1;shape=mxgraph.mockup.containers.anchor;rSize=0;fontSize=17;fontColor=#666666;align=left;" parent="Y5r2OwpMOubRcmJ43Hbg-2" vertex="1">
          <mxGeometry x="130" y="60" width="250" height="26" as="geometry" />
        </mxCell>
        <mxCell id="LywJoPGVwAoqIJY_kdeg-0" value="" style="verticalLabelPosition=bottom;shadow=0;dashed=0;align=center;html=1;verticalAlign=top;strokeWidth=1;shape=mxgraph.mockup.graphics.simpleIcon;strokeColor=#999999;" vertex="1" parent="Y5r2OwpMOubRcmJ43Hbg-2">
          <mxGeometry x="40" y="120" width="170" height="50" as="geometry" />
        </mxCell>
        <mxCell id="LywJoPGVwAoqIJY_kdeg-1" value="&lt;h1&gt;LOGO&lt;/h1&gt;" style="text;html=1;strokeColor=none;fillColor=none;align=center;verticalAlign=middle;whiteSpace=wrap;rounded=0;" vertex="1" parent="Y5r2OwpMOubRcmJ43Hbg-2">
          <mxGeometry x="95" y="135" width="40" height="20" as="geometry" />
        </mxCell>
        <mxCell id="LywJoPGVwAoqIJY_kdeg-2" value="History" style="text;html=1;strokeColor=none;fillColor=none;align=center;verticalAlign=middle;whiteSpace=wrap;rounded=0;fontSize=15;" vertex="1" parent="Y5r2OwpMOubRcmJ43Hbg-2">
          <mxGeometry x="65" y="200" width="145" height="40" as="geometry" />
        </mxCell>
        <mxCell id="LywJoPGVwAoqIJY_kdeg-3" value="&lt;font style=&quot;font-size: 15px&quot;&gt;Cards&lt;/font&gt;" style="text;html=1;strokeColor=none;fillColor=none;align=center;verticalAlign=middle;whiteSpace=wrap;rounded=0;" vertex="1" parent="Y5r2OwpMOubRcmJ43Hbg-2">
          <mxGeometry x="65" y="270" width="145" height="40" as="geometry" />
        </mxCell>
        <mxCell id="LywJoPGVwAoqIJY_kdeg-4" value="&lt;font style=&quot;font-size: 15px&quot;&gt;Messages&lt;/font&gt;" style="text;html=1;strokeColor=none;fillColor=none;align=center;verticalAlign=middle;whiteSpace=wrap;rounded=0;" vertex="1" parent="Y5r2OwpMOubRcmJ43Hbg-2">
          <mxGeometry x="70" y="350" width="140" height="40" as="geometry" />
        </mxCell>
        <mxCell id="LywJoPGVwAoqIJY_kdeg-6" value="&lt;i&gt;&lt;font style=&quot;font-size: 23px&quot;&gt;&lt;b&gt;Payment successful!&lt;/b&gt;&lt;/font&gt;&lt;/i&gt;" style="text;html=1;strokeColor=none;fillColor=none;align=center;verticalAlign=middle;whiteSpace=wrap;rounded=0;fontSize=15;" vertex="1" parent="Y5r2OwpMOubRcmJ43Hbg-2">
          <mxGeometry x="250" y="180" width="430" height="50" as="geometry" />
        </mxCell>
        <mxCell id="LywJoPGVwAoqIJY_kdeg-8" value="" style="rounded=1;whiteSpace=wrap;html=1;fontSize=15;fontColor=#7A7A7A;" vertex="1" parent="Y5r2OwpMOubRcmJ43Hbg-2">
          <mxGeometry x="520" y="260" width="240" height="170" as="geometry" />
        </mxCell>
        <mxCell id="LywJoPGVwAoqIJY_kdeg-7" value="" style="rounded=1;whiteSpace=wrap;html=1;fontSize=15;fontColor=#7A7A7A;" vertex="1" parent="Y5r2OwpMOubRcmJ43Hbg-2">
          <mxGeometry x="240" y="260" width="240" height="170" as="geometry" />
        </mxCell>
        <mxCell id="LywJoPGVwAoqIJY_kdeg-9" value="" style="verticalLabelPosition=bottom;shadow=0;dashed=0;align=center;html=1;verticalAlign=top;strokeWidth=1;shape=mxgraph.mockup.containers.userMale;strokeColor=#666666;strokeColor2=#008cff;fontSize=15;fontColor=#7A7A7A;" vertex="1" parent="Y5r2OwpMOubRcmJ43Hbg-2">
          <mxGeometry x="335" y="270" width="45" height="40" as="geometry" />
        </mxCell>
        <mxCell id="LywJoPGVwAoqIJY_kdeg-10" value="User information&lt;br&gt;booking information" style="text;html=1;strokeColor=none;fillColor=none;align=center;verticalAlign=middle;whiteSpace=wrap;rounded=0;fontSize=15;fontColor=#7A7A7A;" vertex="1" parent="Y5r2OwpMOubRcmJ43Hbg-2">
          <mxGeometry x="265" y="350" width="190" height="60" as="geometry" />
        </mxCell>
        <mxCell id="LywJoPGVwAoqIJY_kdeg-11" value="&lt;font style=&quot;font-size: 19px&quot;&gt;Card/s information&lt;/font&gt;" style="text;html=1;strokeColor=none;fillColor=none;align=center;verticalAlign=middle;whiteSpace=wrap;rounded=0;fontSize=15;fontColor=#7A7A7A;" vertex="1" parent="Y5r2OwpMOubRcmJ43Hbg-2">
          <mxGeometry x="560" y="290" width="180" height="120" as="geometry" />
        </mxCell>
        <mxCell id="cVITgNXbn3_8MtQ27AcP-0" value="Dashboard page" style="text;html=1;strokeColor=none;fillColor=none;align=center;verticalAlign=middle;whiteSpace=wrap;rounded=0;" vertex="1" parent="Y5r2OwpMOubRcmJ43Hbg-1">
          <mxGeometry x="90" y="40" width="700" height="40" as="geometry" />
        </mxCell>
      </root>
    </mxGraphModel>
  </diagram>
</mxfile>
